<?xml version="1.0"?>
<svg xmlns="http://www.w3.org/2000/svg" xmlns:xlink="http://www.w3.org/1999/xlink" xmlns:svgjs="http://svgjs.com/svgjs" version="1.1" width="512" height="512" x="0" y="0" viewBox="0 0 64 64" style="enable-background:new 0 0 512 512" xml:space="preserve" class=""><g><path xmlns="http://www.w3.org/2000/svg" d="m49.4082 34.4624-8.4881-3.71356.19709-.14337a7.01978 7.01978 0 0 0 2.67547-3.98407l3.50034-3.49982a2.99948 2.99948 0 0 0 0-4.24267l-.17188-.17237a2.97434 2.97434 0 0 0 -.90112-.60943 8.31155 8.31155 0 0 0 1.78-5.15424v-11.33008l-4.64453 1.54785a16.32147 16.32147 0 0 1 -5.17188.83936h-14.26859a7.915 7.915 0 0 0 -7.915 7.91553 8.39248 8.39248 0 0 0 2.46735 5.96576 2.9782 2.9782 0 0 0 -1.58844.82574l-.17188.17139a2.99948 2.99948 0 0 0 0 4.24267l3.50031 3.50031a7.01978 7.01978 0 0 0 2.67547 3.98407l.19709.14337-8.4881 3.71356a10.99889 10.99889 0 0 0 -6.5918 10.0776v17.46h48v-17.46a10.99889 10.99889 0 0 0 -6.5918-10.0776zm-7.46777 15.33985-4.94043 7.76336v-5.25213a26.127 26.127 0 0 1 7.11481-17.98456l2.743 1.20007-1.69959 7.6507-4.32622 1.08154zm-23.09863-6.62256-1.69959-7.65069 2.743-1.20007a26.127 26.127 0 0 1 7.11479 17.98455v5.25213l-4.94043-7.76336 1.1084-5.541zm10.1532 8.92846 1.71624-11.15545a2.8909 2.8909 0 0 0 2.57752 0l1.71624 11.15545c-.00048.06867-.005.1366-.005.20533v7.68652h-6v-7.68652c0-.06873-.00452-.13666-.005-.20533zm1.10461-15.73657 1.18652-1.21191v-.00049a.98606.98606 0 0 1 .63428-.28436c.02655.00018.053.00311.07959.00311s.053-.00293.07953-.00311a.98419.98419 0 0 1 .63434.28485l1.1875 1.21191a1.00272 1.00272 0 0 1 -.00782 1.40625l-1.18655 1.18653a1.00142 1.00142 0 0 1 -1.41406 0l-1.18652-1.187a1.0012 1.0012 0 0 1 -.00681-1.40578zm12.07672-2.89075a28.07443 28.07443 0 0 0 -6.23407 11.56824l-.86554-5.62591.2309-.23078a3.009 3.009 0 0 0 .02246-4.22021l-.50061-.51111a10.01277 10.01277 0 0 0 3.05237-1.50206l1.16485-.84735zm3.70258-11.77383-1.87891 1.87894v-3.17163l.293-.29273a1.00053 1.00053 0 0 1 1.41406-.00049l.17188.17237a.999.999 0 0 1 0 1.41357zm-25.00782-14.86374a5.92235 5.92235 0 0 1 3.04391-.84326h14.26859a18.32341 18.32341 0 0 0 5.80469-.94189l2.01172-.6709v8.55566a6.337 6.337 0 0 1 -1.86914 4.51172l-.13086.13092v-1.58551a3.00328 3.00328 0 0 0 -3-3h-.37891a7.68994 7.68994 0 0 1 -5.47461-2.26758l-1.05273-1.05273-1.59375 1.1958a10.69179 10.69179 0 0 1 -6.375 2.12451h-3.125a3.00328 3.00328 0 0 0 -3 3v.58643l-.1123-.11231a6.40671 6.40671 0 0 1 -1.8877-4.55859 5.94585 5.94585 0 0 1 2.87109-5.07227zm-3.04297 14.15674a.99115.99115 0 0 1 .293-.707l.17188-.17139a1.00053 1.00053 0 0 1 1.41406-.00049l.293.293v3.17163l-1.87891-1.87915a.98919.98919 0 0 1 -.29303-.7066zm4.17188 3.94482v-8.94482a1.001 1.001 0 0 1 1-1h3.125a12.69793 12.69793 0 0 0 7.57422-2.5249l.209-.15674a9.67639 9.67639 0 0 0 6.71287 2.68164h.37891a1.001 1.001 0 0 1 1 1v8.94482a5.01611 5.01611 0 0 1 -2.05859 4.04346l-3.23536 2.35352a7.98236 7.98236 0 0 1 -9.4121 0l-3.23536-2.35352a5.01611 5.01611 0 0 1 -2.05859-4.04346zm4.11816 8.01418a10.01464 10.01464 0 0 0 3.0528 1.5022l-.50006.511a3.0075 3.0075 0 0 0 .02148 4.21972l.2309.2309-.86554 5.62628a28.07443 28.07443 0 0 0 -6.23407-11.56824l3.12964-1.3692zm-16.11816 11.581a8.99583 8.99583 0 0 1 5.27661-8.18433l1.88159 8.4646 3.67383.91846-.8916 4.459 6.23767 9.80227h-6.1781v-6h-2v6h-8zm44 15.46h-8v-6h-2v6h-6.1781l6.23767-9.80225-.8916-4.459 3.67383-.91846 1.88159-8.4646a8.99583 8.99583 0 0 1 5.27661 8.18431z" fill="#e2e2e2" data-original="#000000" style="" class=""/></g></svg>
