<?xml version="1.0"?>
<svg xmlns="http://www.w3.org/2000/svg" xmlns:xlink="http://www.w3.org/1999/xlink" xmlns:svgjs="http://svgjs.com/svgjs" version="1.1" width="512" height="512" x="0" y="0" viewBox="0 0 64 64" style="enable-background:new 0 0 512 512" xml:space="preserve" class=""><g><path xmlns="http://www.w3.org/2000/svg" d="m55 41h-2.1c-.6-.7-1.4-1.3-2.2-1.8l-4.7-2.9 1.4-1.4c2.2-2.2 2.4-5.7.5-8.2-.6-.7-.9-1.6-.9-2.5v-7.2c0-8.3-6.7-15-15-15s-15 6.7-15 15v7.2c0 .9-.3 1.9-.9 2.6-2 2.4-1.8 6 .5 8.2l1.4 1.4-4.7 2.9c-3.3 1.9-5.3 5.5-5.3 9.3v13.4h47c1.7 0 3-1.3 3-3v-15c0-1.7-1.3-3-3-3zm1 3v4h-10v-4c0-.6.4-1 1-1h8c.6 0 1 .4 1 1zm-6 12v-2h2v2zm2 2v2h-2v-2zm-6-8h2v2h-2zm6 0v2h-2v-2zm-6 4h2v2h-2zm8 0h2v2h-2zm0-2v-2h2v2zm-4.2-11h-2.8c-1.7 0-3 1.3-3 3v15c0 .3.1.7.2 1h-11.2v-14.5l11.6-7.7v-.1l5.2 3.3c-.1 0 0 0 0 0zm-14.7-8.7c-3.5 1.7-7.7.3-9.4-3.1-.5-1-.7-2-.7-3.1v-8.7c0-.4.3-.8.6-.9l6-2.2c.2-.1.5-.1.7 0l6 2.2c.4.1.6.5.6.9v8.7c.1 2.6-1.4 5-3.8 6.2zm-8.4 1c.4.3.8.5 1.2.8 2.5 1.3 5.5 1.3 8 0 .4-.2.9-.5 1.2-.8l1.4.8-6.5 9.2-6.6-9.1zm16 3.4-6.6 4.4 4.3-5.8zm-19-1.5 4.1 5.6-6.2-4.3zm-6-7.2c.9-1.1 1.3-2.4 1.3-3.8v-7.2c0-7.2 5.8-13 13-13s13 5.8 13 13v7.2c0 1.4.5 2.7 1.3 3.8 1.3 1.6 1.2 4-.3 5.5l-1.7 1.7-5.5-3.4c1.4-1.6 2.2-3.7 2.2-5.9v-8.7c0-1.2-.8-2.4-1.9-2.8l-6-2.2c-.7-.3-1.4-.3-2.1 0l-6 2.3c-1.2.5-2 1.6-2 2.9v8.7c0 2.2.8 4.2 2.2 5.9l-5.5 3.3-.1-.1-1.6-1.7c-1.5-1.4-1.7-3.8-.3-5.5zm-7.7 20.6c0-3.1 1.6-6 4.3-7.7l5.3-3.3 11.4 7.9v14.5h-13v-7h-2v7h-6zm36 10.4v-1h2v2h-1c-.6 0-1-.4-1-1zm9 1h-1v-2h2v1c0 .6-.4 1-1 1z" fill="#e2e2e2" data-original="#000000" style="" class=""/><path xmlns="http://www.w3.org/2000/svg" d="m18 49h11v2h-11z" fill="#e2e2e2" data-original="#000000" style="" class=""/><path xmlns="http://www.w3.org/2000/svg" d="m35 49h7v2h-7z" fill="#e2e2e2" data-original="#000000" style="" class=""/></g></svg>
