<?xml version="1.0"?>
<svg xmlns="http://www.w3.org/2000/svg" xmlns:xlink="http://www.w3.org/1999/xlink" xmlns:svgjs="http://svgjs.com/svgjs" version="1.1" width="512" height="512" x="0" y="0" viewBox="0 0 64 64" style="enable-background:new 0 0 512 512" xml:space="preserve" class=""><g><path xmlns="http://www.w3.org/2000/svg" d="m52.6 40c-.6 0-1.1.1-1.6.2-.9-.6-1.8-1-2.8-1.3l-8.2-2.4c2.5-2.1 4-5.2 4-8.5v-.6l2.8-2.1c.8-.6 1.2-1.5 1.2-2.4v-.4c0-1.7-1.3-3-3-3-.2 0-.5 0-.7.1l-.3.1v-5.4l1.8-2.3c2.1-2.8 1.5-6.7-1.2-8.8-1.2-.8-2.5-1.2-3.8-1.2h-17.6c-3.4 0-6.2 2.8-6.2 6.2 0 1.4.4 2.7 1.2 3.8l1.8 2.3v5.4l-.3-.1c-1.6-.4-3.2.6-3.6 2.2-.1.3-.1.5-.1.8v.4c0 .9.4 1.8 1.2 2.4l2.8 2.1v.6c0 3.3 1.5 6.4 4 8.5l-8.1 2.4c-4.7 1.3-7.9 5.6-7.9 10.5v12.5h48v-9l1.5-1.8c1-1.2 1.5-2.6 1.5-4.1v-.6c0-3.6-2.9-6.5-6.4-6.5zm-3.9 1.3c-.4.3-.8.6-1.1 1l-7.1 8.5c-1 1.2-1.5 2.7-1.5 4.2v.6c0 1.7.6 3.3 1.8 4.4h-13.8v-12.4l17.4-7.7 3.2.9c.3.2.7.3 1.1.5zm-22-3c.4.2.8.4 1.3.6v4.3l-5.9-3.9 4.1-1.2zm11.1-.3 3.6 1.1-5.4 2.4v-2.6c.4-.2.9-.4 1.3-.6zm-3.8 4.4-4 1.8v-4.7c1.3.3 2.7.3 4 0zm-12-25c1.1-1 2.5-1.8 4-2.2v2.9c-1.4.3-2.8.9-4 1.7zm6-2.4h.2 2.8v3h-2.8c-.1 0-.2 0-.2 0zm5 0h2.8.2v3c-.1 0-.2 0-.2 0h-2.8zm5 .3c1.5.4 2.9 1.1 4 2.2v2.4c-1.2-.8-2.6-1.4-4-1.7zm6.8 6.3c.5-.1 1.1.2 1.2.7v.2.5c0 .3-.1.6-.4.8l-1.6 1.2v-3.2zm.2-13.4c0 .9-.3 1.8-.8 2.5l-2.2 3v1.2c-1-.7-2.1-1.2-3.3-1.5l1-1.4c.8-1.1 1.2-2.4 1.2-3.8 0-1.6-.6-3.1-1.7-4.2h1.4c2.5 0 4.4 1.9 4.4 4.2zm-6 0c0 .9-.3 1.8-.8 2.5l-1.7 2.3c-.2 0-.5 0-.7 0h-2.8v-9h1.8c2.3 0 4.2 1.9 4.2 4.2zm-8-4.2v9h-2.8c-.2 0-.5 0-.7 0l-1.7-2.2c-1.4-1.9-1-4.5.9-6 .7-.5 1.6-.8 2.5-.8zm-11.2 6.8c-1.4-1.9-1-4.5.9-6 .7-.5 1.6-.8 2.5-.8h1.4c-1 1.2-1.6 2.7-1.6 4.2 0 1.4.4 2.7 1.2 3.8l1 1.4c-1.2.3-2.3.8-3.3 1.5v-1.2zm-1.4 13c-.3-.2-.4-.5-.4-.8v-.4c0-.6.4-1 1-1h.2l.8.2v3.2zm3.6 4.3v-5.6c1.7-1.6 3.9-2.4 6.2-2.4h7.5c2.3 0 4.5.9 6.2 2.4v5.6c0 3.3-1.8 6.3-4.7 7.9l-1 .5c-2.7 1.5-5.9 1.5-8.6 0l-1-.5c-2.8-1.6-4.6-4.6-4.6-7.9zm-12 21.4c0-4 2.6-7.5 6.5-8.6l3.1-.9 7.9 5.3-2.5 1.1v13.6h-4v-7h-2v7h-9zm44 10.5h-3.9c.1-.1.2-.2.3-.3l3.6-4.3zm3-13c0 1-.4 2-1 2.8l-7.1 8.5c-1.6 1.9-4.4 2.1-6.3.6-1-.8-1.6-2.1-1.6-3.4v-.5c0-1 .4-2 1-2.8l1.6.7c1.2.5 1.8 1.7 1.4 2.9l1.9.6c.7-2.2-.4-4.6-2.5-5.4l-1-.4 1.9-2.3 1.4.6c1.2.5 1.8 1.7 1.4 2.9l1.9.6c.7-2.2-.4-4.6-2.5-5.4l-.8-.3 1.9-2.3 1.1.5c1.2.5 1.8 1.7 1.4 2.9l1.9.6c.7-2.2-.4-4.6-2.5-5.4l-.3-.1c2-1.4 4.8-.8 6.1 1.2.5.7.8 1.6.8 2.5v.4z" fill="#e2e2e2" data-original="#000000" style="" class=""/><path xmlns="http://www.w3.org/2000/svg" d="m29 50h2v2h-2z" fill="#e2e2e2" data-original="#000000" style="" class=""/><path xmlns="http://www.w3.org/2000/svg" d="m29 55h2v2h-2z" fill="#e2e2e2" data-original="#000000" style="" class=""/></g></svg>
