<?xml version="1.0"?>
<svg xmlns="http://www.w3.org/2000/svg" xmlns:xlink="http://www.w3.org/1999/xlink" xmlns:svgjs="http://svgjs.com/svgjs" version="1.1" width="512" height="512" x="0" y="0" viewBox="0 0 512 512" style="enable-background:new 0 0 512 512" xml:space="preserve" class=""><g><g xmlns="http://www.w3.org/2000/svg"><path d="M248,464a8,8,0,0,0,0,16h48a8,8,0,0,0,0-16Z" fill="#e2e2e2" data-original="#000000" style="" class=""/><path d="M488,376H328V224a8,8,0,0,0-16,0V384a8,8,0,0,0,8,8h80v84a12.01,12.01,0,0,1-12,12H156a12.01,12.01,0,0,1-12-12V254.54a88.008,88.008,0,0,0,0-173.08V36a12.01,12.01,0,0,1,12-12h61.75l6.49,25.94A8,8,0,0,0,232,56h80a8,8,0,0,0,7.76-6.06L326.25,24H388a12.01,12.01,0,0,1,12,12V224H376a8,8,0,0,0-8,8v16H344a8,8,0,0,0-8,8V360a8,8,0,0,0,8,8H472a8,8,0,0,0,8-8V256a8,8,0,0,0-8-8H440a8,8,0,0,0-8,8v40H416V36A28.031,28.031,0,0,0,388,8H156a28.031,28.031,0,0,0-28,28V80a8,8,0,0,0-8,8v72H48a8,8,0,0,0-8,8,88.1,88.1,0,0,0,88,88V476a28.031,28.031,0,0,0,28,28H388a28.031,28.031,0,0,0,28-28V392h72a8,8,0,0,0,0-16ZM368,352H352V264h16Zm32,0H384V240h16Zm48-88h16v88H448Zm-32,48h16v40H416ZM309.75,24l-4,16h-67.5l-4-16ZM128,240a72.1,72.1,0,0,1-71.56-64H128a8,8,0,0,0,8-8V96.44A72,72,0,0,1,128,240Z" fill="#e2e2e2" data-original="#000000" style="" class=""/><path d="M112,144V64a8,8,0,0,0-8-8,88.1,88.1,0,0,0-88,88,8,8,0,0,0,8,8h80A8,8,0,0,0,112,144Zm-16-8H32.441A72.148,72.148,0,0,1,96,72.441Z" fill="#e2e2e2" data-original="#000000" style="" class=""/></g></g></svg>
