<?xml version="1.0"?>
<svg xmlns="http://www.w3.org/2000/svg" xmlns:xlink="http://www.w3.org/1999/xlink" xmlns:svgjs="http://svgjs.com/svgjs" version="1.1" width="512" height="512" x="0" y="0" viewBox="0 0 64 64" style="enable-background:new 0 0 512 512" xml:space="preserve" class=""><g><path xmlns="http://www.w3.org/2000/svg" d="m56 56.2v-9.5c0-3.9-2-7.4-5.3-9.4l-9-5.4c1.2-1.5 1.9-3.3 2.2-5.2l2.5-1.2c1-.5 1.7-1.5 1.7-2.7v-1.2c0-1.7-1.3-3-3-3-.2 0-.459.022-.708.086-.174.045-.392.132-.392.132v-2.618l.4-.8c1-2.1 1.6-4.4 1.6-6.7v-7.3l-3.8 1.9c-1 .5-2 .7-3.1.7h-15c-1.6 0-3.1.6-4.2 1.8l-.1.1c-1.7 1.7-2.2 4.4-1.3 6.6l1.6 3.7v2.5l-.3-.1c-1.6-.4-2.986.321-3.653 1.829-.146.33-.147.871-.147 1.171v1.2c0 1.1.6 2.2 1.7 2.7l2.5 1.2c.3 1.9 1 3.7 2.2 5.2l-9 5.4c-3.4 1.9-5.4 5.5-5.4 9.4v15.3h47c1.7 0 3-1.3 3-3 0-1.3-.8-2.4-2-2.8zm-36-31.8-1.4-.7c-.3-.2-.6-.5-.6-.9v-1.2c0-.6.4-1 1-1h.2l.8.2zm22.1 10-5.1 5.2-2.9-2.9c.6-.2 1.2-.4 1.7-.7l2.4-1.3c.7-.4 1.4-.9 2-1.4zm2.7-13.8c.3-.1.643-.012.9.2.241.208.4.5.4.8v1.2c0 .4-.2.7-.6.9l-1.5.7v-3.6zm-24.5-8.9c-.6-1.5-.3-3.3.8-4.4l.1-.1c.8-.8 1.8-1.2 2.9-1.2h15.1c1.4 0 2.7-.3 4-.9l.8-.5v4.1c0 2-.5 4-1.4 5.8l-.1.2c-6.8-2.4-14.2-2.4-21 0zm1.7 13.4v-8.4h.1c6.4-2.3 13.4-2.3 19.8 0h.1v8.4c0 3.3-1.8 6.3-4.7 7.9l-2.4 1.3c-1.8 1-4 1-5.7 0l-2.5-1.3c-2.9-1.6-4.7-4.6-4.7-7.9zm1.8 8.2c.6.5 1.3 1 2 1.4l2.4 1.3c.5.3 1.1.5 1.7.7l-2.9 2.9-5.1-5.1zm-5.8 26.7h-8v-13.3c0-2 .6-3.9 1.8-5.4l3.5 3.5c1.7 1.7 2.6 4 2.6 6.4v8.8zm13 0h-11v-8.9c0-2.9-1.2-5.7-3.2-7.8l-3.6-3.6c.4-.3.8-.6 1.2-.8l5.7-3.4 6.9 6.9 4-4v6.8c-.2.1-.4.2-.5.3l-1.3-.9c-1.5-1-3.6-.6-4.6.9-.4.5-.6 1.2-.6 1.8v1.4c0 1.8 1.5 3.3 3.3 3.3.7 0 1.3-.2 1.8-.6l1.3-.9c.2.1.4.2.5.3v9.2zm-1.8-11-1.2.8c-.6.4-1.4.2-1.8-.4-.1-.2-.2-.4-.2-.7v-1.4c0-.7.6-1.3 1.3-1.3.3 0 .5.1.7.2l1.2.8c-.3.6-.3 1.4 0 2zm2.8 0c-.6 0-1-.4-1-1s.4-1 1-1 1 .4 1 1-.4 1-1 1zm6.2 11h-5.2v-9.2c.2-.1.4-.2.5-.3l1.3.9c1.5 1 3.6.6 4.6-.9.4-.5.6-1.2.6-1.8v-1.4c0-1.8-1.5-3.3-3.3-3.3-.7 0-1.3.2-1.8.6l-1.3.9c-.2-.1-.4-.2-.5-.3v-6.8l4 4 6.9-6.9 5.7 3.4c2.7 1.6 4.4 4.6 4.4 7.7v4.1c-.8-.9-1.8-1.6-2.9-2.1l.1-.5c.4-1.8-.6-3.6-2.4-4.1-1.8-.4-3.6.6-4.1 2.4-.1.5-.1 1.1 0 1.6l.1.5c-3 1.3-4.9 4.2-4.9 7.4v.2c-1.2.4-2 1.5-2 2.8 0 .4.1.8.2 1.1zm-3.4-13 1.2-.8c.6-.4 1.4-.2 1.8.4.1.2.2.5.2.7v1.4c0 .7-.6 1.3-1.3 1.3-.3 0-.5-.1-.7-.2l-1.2-.8c.3-.6.3-1.4 0-2zm13.2 3c3.3 0 6 2.7 6 6h-12c0-3.3 2.7-6 6-6zm-1.1-3.5c.488-.61 1.4-.7 2-.2.127.105.138.134.2.2.291.309.3.8.2 1.2l-.1.4c-.8-.1-1.6-.1-2.4 0l-.1-.4c-.1-.4-.061-.87.2-1.2zm8.1 13.5h-14c-.6 0-1-.4-1-1s.4-1 1-1h14c.6 0 1 .4 1 1s-.4 1-1 1z" fill="#e2e2e2" data-original="#000000" style=""/></g></svg>
