<?xml version="1.0"?>
<svg xmlns="http://www.w3.org/2000/svg" xmlns:xlink="http://www.w3.org/1999/xlink" xmlns:svgjs="http://svgjs.com/svgjs" version="1.1" width="512" height="512" x="0" y="0" viewBox="0 0 512 512" style="enable-background:new 0 0 512 512" xml:space="preserve" class=""><g><g xmlns="http://www.w3.org/2000/svg"><path d="M232,480h48a8,8,0,0,0,0-16H232a8,8,0,0,0,0,16Z" fill="#e2e2e2" data-original="#000000" style="" class=""/><path d="M444,88H400V36A28.031,28.031,0,0,0,372,8H140a28.031,28.031,0,0,0-28,28V88H68a28.031,28.031,0,0,0-28,28V428a28.031,28.031,0,0,0,28,28h44v20a28.031,28.031,0,0,0,28,28H372a28.031,28.031,0,0,0,28-28V456h44a28.031,28.031,0,0,0,28-28V116A28.031,28.031,0,0,0,444,88ZM293.75,24l-4,16h-67.5l-4-16ZM128,36a12.01,12.01,0,0,1,12-12h61.75l6.49,25.94A8,8,0,0,0,216,56h80a8,8,0,0,0,7.76-6.06L310.25,24H372a12.01,12.01,0,0,1,12,12V88h-8V72a8,8,0,0,0-8-8H336a8,8,0,0,0-8,8V88H280V72a8,8,0,0,0-8-8H240a8,8,0,0,0-8,8V88H184V72a8,8,0,0,0-8-8H144a8,8,0,0,0-8,8V88h-8ZM360,80v32H344V80Zm-96,0v32H248V80Zm-96,0v32H152V80ZM384,476a12.01,12.01,0,0,1-12,12H140a12.01,12.01,0,0,1-12-12V456H384Zm72-48a12.01,12.01,0,0,1-12,12H68a12.01,12.01,0,0,1-12-12v-6.71A27.75,27.75,0,0,0,68,424H444a27.75,27.75,0,0,0,12-2.71Zm0-32a12.01,12.01,0,0,1-12,12H68a12.01,12.01,0,0,1-12-12V152H456Zm0-260H56V116a12.01,12.01,0,0,1,12-12h68v16a8,8,0,0,0,8,8h32a8,8,0,0,0,8-8V104h48v16a8,8,0,0,0,8,8h32a8,8,0,0,0,8-8V104h48v16a8,8,0,0,0,8,8h32a8,8,0,0,0,8-8V104h68a12.01,12.01,0,0,1,12,12Z" fill="#e2e2e2" data-original="#000000" style="" class=""/><path d="M232,232h48a8,8,0,0,0,8-8V176a8,8,0,0,0-8-8H232a8,8,0,0,0-8,8v48A8,8,0,0,0,232,232Zm8-48h32v32H240Z" fill="#e2e2e2" data-original="#000000" style="" class=""/><path d="M152,232h48a8,8,0,0,0,8-8V176a8,8,0,0,0-8-8H152a8,8,0,0,0-8,8v48A8,8,0,0,0,152,232Zm8-48h32v32H160Z" fill="#e2e2e2" data-original="#000000" style="" class=""/><path d="M392,232h48a8,8,0,0,0,8-8V176a8,8,0,0,0-8-8H392a8,8,0,0,0-8,8v48A8,8,0,0,0,392,232Zm8-48h32v32H400Z" fill="#e2e2e2" data-original="#000000" style="" class=""/><path d="M312,232h48a8,8,0,0,0,8-8V176a8,8,0,0,0-8-8H312a8,8,0,0,0-8,8v48A8,8,0,0,0,312,232Zm8-48h32v32H320Z" fill="#e2e2e2" data-original="#000000" style="" class=""/><path d="M72,232h48a8,8,0,0,0,8-8V176a8,8,0,0,0-8-8H72a8,8,0,0,0-8,8v48A8,8,0,0,0,72,232Zm8-48h32v32H80Z" fill="#e2e2e2" data-original="#000000" style="" class=""/><path d="M232,312h48a8,8,0,0,0,8-8V256a8,8,0,0,0-8-8H232a8,8,0,0,0-8,8v48A8,8,0,0,0,232,312Zm8-48h32v32H240Z" fill="#e2e2e2" data-original="#000000" style="" class=""/><path d="M152,312h48a8,8,0,0,0,8-8V256a8,8,0,0,0-8-8H152a8,8,0,0,0-8,8v48A8,8,0,0,0,152,312Zm8-48h32v32H160Z" fill="#e2e2e2" data-original="#000000" style="" class=""/><path d="M392,312h48a8,8,0,0,0,8-8V256a8,8,0,0,0-8-8H392a8,8,0,0,0-8,8v48A8,8,0,0,0,392,312Zm8-48h32v32H400Z" fill="#e2e2e2" data-original="#000000" style="" class=""/><path d="M312,312h48a8,8,0,0,0,8-8V256a8,8,0,0,0-8-8H312a8,8,0,0,0-8,8v48A8,8,0,0,0,312,312Zm8-48h32v32H320Z" fill="#e2e2e2" data-original="#000000" style="" class=""/><path d="M72,312h48a8,8,0,0,0,8-8V256a8,8,0,0,0-8-8H72a8,8,0,0,0-8,8v48A8,8,0,0,0,72,312Zm8-48h32v32H80Z" fill="#e2e2e2" data-original="#000000" style="" class=""/><path d="M232,392h48a8,8,0,0,0,8-8V336a8,8,0,0,0-8-8H232a8,8,0,0,0-8,8v48A8,8,0,0,0,232,392Zm8-48h32v32H240Z" fill="#e2e2e2" data-original="#000000" style="" class=""/><path d="M152,392h48a8,8,0,0,0,8-8V336a8,8,0,0,0-8-8H152a8,8,0,0,0-8,8v48A8,8,0,0,0,152,392Zm8-48h32v32H160Z" fill="#e2e2e2" data-original="#000000" style="" class=""/><path d="M72,392h48a8,8,0,0,0,8-8V336a8,8,0,0,0-8-8H72a8,8,0,0,0-8,8v48A8,8,0,0,0,72,392Zm8-48h32v32H80Z" fill="#e2e2e2" data-original="#000000" style="" class=""/></g></g></svg>
