<?xml version="1.0"?>
<svg xmlns="http://www.w3.org/2000/svg" xmlns:xlink="http://www.w3.org/1999/xlink" xmlns:svgjs="http://svgjs.com/svgjs" version="1.1" width="512" height="512" x="0" y="0" viewBox="0 0 64 64" style="enable-background:new 0 0 512 512" xml:space="preserve" class=""><g><path xmlns="http://www.w3.org/2000/svg" d="m31 44h2v2h-2z" fill="#e2e2e2" data-original="#000000" style=""/><path xmlns="http://www.w3.org/2000/svg" d="m31 50h2v2h-2z" fill="#e2e2e2" data-original="#000000" style=""/><path xmlns="http://www.w3.org/2000/svg" d="m31 56h2v2h-2z" fill="#e2e2e2" data-original="#000000" style=""/><path xmlns="http://www.w3.org/2000/svg" d="m56 46.18427v-.25458a11.05153 11.05153 0 0 0 -7.1377-10.29981l-7.6153-2.85547a10.90559 10.90559 0 0 0 2.69568-6.3518l2.52313-3.15406a7.024 7.024 0 0 0 1.53419-4.37304v-6.11817a8.9713 8.9713 0 0 0 -7.52-8.87793l-5.23828-.873-3.24172-1.08012-3.2417 1.08008-5.23828.873a8.9713 8.9713 0 0 0 -7.52002 8.87797v6.11817a7.024 7.024 0 0 0 1.53418 4.373l2.52313 3.15406a10.90559 10.90559 0 0 0 2.69568 6.3518l-7.61529 2.85551a11.05153 11.05153 0 0 0 -7.1377 10.29981v16.07031h50v-13a2.99507 2.99507 0 0 0 -2-2.81573zm-30.90576-11.39327 3.14746 2.003a6.94263 6.94263 0 0 0 1.75537.795l-3.04248 3.04285-5.83685-5.108 3.28936-1.23339c.22644.16968.44568.34687.68714.50054zm13.81152 0c.24146-.15369.4607-.33088.68714-.50055l3.28936 1.23339-5.83685 5.108-3.04254-3.04291a6.94187 6.94187 0 0 0 1.75543-.795zm.95224-11.791a3.99594 3.99594 0 0 0 -3.858-3h-.83789a3.9934 3.9934 0 0 0 -3.16211 1.54883 3.9934 3.9934 0 0 0 -3.16211-1.54883h-.83789a3.99594 3.99594 0 0 0 -3.858 3h-2.142v-4.17383a.9944.9944 0 0 1 .90918-.99512l18-1.63671c.03174-.00293.063-.00489.09375-.00489a1.00029 1.00029 0 0 1 .99707 1.00098v5.80957zm-1.858 1a2.00229 2.00229 0 0 1 -2 2h-.83789a1.99673 1.99673 0 0 1 -1.897-1.36816l-.21091-.63184.21094-.63184a1.99673 1.99673 0 0 1 1.89697-1.36816h.83789a2.00229 2.00229 0 0 1 2 2zm-7.0542 0-.21094.63184a1.99673 1.99673 0 0 1 -1.89697 1.36816h-.83789a2 2 0 0 1 0-4h.83789a1.99673 1.99673 0 0 1 1.897 1.36816zm-12.9458-5.10449v-6.11817a6.97786 6.97786 0 0 1 5.84912-6.90527l5.31543-.88574 2.83545-.93262 2.68359.89453 5.46729.92383a6.97786 6.97786 0 0 1 5.84912 6.90527v6.11817a5.01651 5.01651 0 0 1 -1.0957 3.123l-.9043 1.13049v-5.95857a3.00015 3.00015 0 0 0 -3.27148-2.98828l-18.00052 1.63672a2.98539 2.98539 0 0 0 -2.728 2.9873v4.32283l-.9043-1.13044a5.01651 5.01651 0 0 1 -1.0957-3.12305zm4 6.10449h2.142a3.99594 3.99594 0 0 0 3.858 3h.83789a3.9934 3.9934 0 0 0 3.16211-1.54883 3.9934 3.9934 0 0 0 3.16211 1.54883h.83789a3.99594 3.99594 0 0 0 3.858-3h2.142v.51074a8.95719 8.95719 0 0 1 -4.16846 7.59278l-3.14746 2.00293a5.012 5.012 0 0 1 -5.36816 0l-3.14746-2.00293a8.95719 8.95719 0 0 1 -4.16846-7.59278zm-1 35v-10h-2v10h-9v-14.07031a9.041 9.041 0 0 1 5.83984-8.42676l3.15116-1.18158 8.05438 7.04681 4.95462-4.95416 4.95459 4.95416 8.05441-7.04681 3.15119 1.18158a9.041 9.041 0 0 1 5.83981 8.42676v.07031h-15a3.00328 3.00328 0 0 0 -3 3v11zm35 0h-18v-11a1.001 1.001 0 0 1 1-1h16a1.001 1.001 0 0 1 1 1z" fill="#e2e2e2" data-original="#000000" style=""/><path xmlns="http://www.w3.org/2000/svg" d="m47 51a3 3 0 1 0 3 3 3.00328 3.00328 0 0 0 -3-3zm0 4a1 1 0 1 1 1-1 1.001 1.001 0 0 1 -1 1z" fill="#e2e2e2" data-original="#000000" style=""/></g></svg>
