<?xml version="1.0"?>
<svg xmlns="http://www.w3.org/2000/svg" xmlns:xlink="http://www.w3.org/1999/xlink" xmlns:svgjs="http://svgjs.com/svgjs" version="1.1" width="512" height="512" x="0" y="0" viewBox="0 0 512 512" style="enable-background:new 0 0 512 512" xml:space="preserve" class=""><g><g xmlns="http://www.w3.org/2000/svg"><path d="M256,464H208a8,8,0,0,0,0,16h48a8,8,0,0,0,0-16Z" fill="#e2e2e2" data-original="#000000" style="" class=""/><path d="M216,288h32a16.019,16.019,0,0,0,16-16V240a16.019,16.019,0,0,0-16-16H216a16.019,16.019,0,0,0-16,16v32A16.019,16.019,0,0,0,216,288Zm0-48h32l.01,32H216Z" fill="#e2e2e2" data-original="#000000" style="" class=""/><path d="M168,224H136a16.019,16.019,0,0,0-16,16v32a16.019,16.019,0,0,0,16,16h32a16.019,16.019,0,0,0,16-16V240A16.019,16.019,0,0,0,168,224Zm0,48H136V240h32l.01,32Z" fill="#e2e2e2" data-original="#000000" style="" class=""/><path d="M216,208h32a16.019,16.019,0,0,0,16-16V160a16.019,16.019,0,0,0-16-16H216a16.019,16.019,0,0,0-16,16v32A16.019,16.019,0,0,0,216,208Zm0-48h32l.01,32H216Z" fill="#e2e2e2" data-original="#000000" style="" class=""/><path d="M168,144H136a16.019,16.019,0,0,0-16,16v32a16.019,16.019,0,0,0,16,16h32a16.019,16.019,0,0,0,16-16V160A16.019,16.019,0,0,0,168,144Zm0,48H136V160h32l.01,32Z" fill="#e2e2e2" data-original="#000000" style="" class=""/><path d="M296,208h32a16.019,16.019,0,0,0,16-16V160a16.019,16.019,0,0,0-16-16H296a16.019,16.019,0,0,0-16,16v32A16.019,16.019,0,0,0,296,208Zm0-48h32l.01,32H296Z" fill="#e2e2e2" data-original="#000000" style="" class=""/><path d="M216,128h32a16.019,16.019,0,0,0,16-16V80a16.019,16.019,0,0,0-16-16H216a16.019,16.019,0,0,0-16,16v32A16.019,16.019,0,0,0,216,128Zm0-48h32l.01,32H216Z" fill="#e2e2e2" data-original="#000000" style="" class=""/><path d="M168,64H136a16.019,16.019,0,0,0-16,16v32a16.019,16.019,0,0,0,16,16h32a16.019,16.019,0,0,0,16-16V80A16.019,16.019,0,0,0,168,64Zm0,48H136V80h32l.01,32Z" fill="#e2e2e2" data-original="#000000" style="" class=""/><path d="M296,128h32a16.019,16.019,0,0,0,16-16V80a16.019,16.019,0,0,0-16-16H296a16.019,16.019,0,0,0-16,16v32A16.019,16.019,0,0,0,296,128Zm0-48h32l.01,32H296Z" fill="#e2e2e2" data-original="#000000" style="" class=""/><path d="M168,304H136a16.019,16.019,0,0,0-16,16v32a16.019,16.019,0,0,0,16,16h32a16.019,16.019,0,0,0,16-16V320A16.019,16.019,0,0,0,168,304Zm0,48H136V320h32l.01,32Z" fill="#e2e2e2" data-original="#000000" style="" class=""/><path d="M168,384H136a16.019,16.019,0,0,0-16,16v32a16.019,16.019,0,0,0,16,16h32a16.019,16.019,0,0,0,16-16V400A16.019,16.019,0,0,0,168,384Zm0,48H136V400h32l.01,32Z" fill="#e2e2e2" data-original="#000000" style="" class=""/><path d="M424.97,319.01a24.046,24.046,0,0,0-25.8-5.33A23.995,23.995,0,0,0,376,296V36A28.031,28.031,0,0,0,348,8H116A28.031,28.031,0,0,0,88,36V476a28.031,28.031,0,0,0,28,28H408a8,8,0,0,0,8-8V459.31l13.66-13.65A8.008,8.008,0,0,0,432,440V336A23.924,23.924,0,0,0,424.97,319.01ZM269.75,24l-4,16h-67.5l-4-16Zm34.27,464H116a12.01,12.01,0,0,1-12-12V36a12.01,12.01,0,0,1,12-12h61.75l6.49,25.94A8,8,0,0,0,192,56h80a8,8,0,0,0,7.76-6.06L286.25,24H348a12.01,12.01,0,0,1,12,12V294.1a24.036,24.036,0,0,0-24-4.73V248a24,24,0,0,0-48,0v92.68c-.07-.13-.13-.26-.21-.38a24,24,0,0,0-41.65,23.87l42.95,80.18a7.982,7.982,0,0,0,1.49,1.98l13.53,13.06ZM416,436.69l-13.66,13.65A8.008,8.008,0,0,0,400,456v32H320.02l.1-31.98a8.04,8.04,0,0,0-2.44-5.78L302.6,435.69l-42.41-79.18-.12-.21a8.033,8.033,0,0,1,2.94-10.95,7.868,7.868,0,0,1,3.98-1.07,8.031,8.031,0,0,1,6.84,3.84l15.02,29.97A8,8,0,0,0,304,374.51V248a8.011,8.011,0,0,1,8-8,7.989,7.989,0,0,1,8,8V352a8,8,0,0,0,16,0V312a8.011,8.011,0,0,1,8-8,7.989,7.989,0,0,1,8,8v40a8,8,0,0,0,16,0V320a8.011,8.011,0,0,1,8-8,7.989,7.989,0,0,1,8,8v32a8,8,0,0,0,16,0V336a8.011,8.011,0,0,1,8-8,7.989,7.989,0,0,1,8,8Z" fill="#e2e2e2" data-original="#000000" style="" class=""/></g></g></svg>
