<?xml version="1.0"?>
<svg xmlns="http://www.w3.org/2000/svg" xmlns:xlink="http://www.w3.org/1999/xlink" xmlns:svgjs="http://svgjs.com/svgjs" version="1.1" width="512" height="512" x="0" y="0" viewBox="0 0 512 512" style="enable-background:new 0 0 512 512" xml:space="preserve" class=""><g><g xmlns="http://www.w3.org/2000/svg"><path d="m340 8h-232a28.031 28.031 0 0 0 -28 28v440a28.031 28.031 0 0 0 28 28h232a28.031 28.031 0 0 0 28-28v-440a28.031 28.031 0 0 0 -28-28zm-78.25 16-4 16h-67.5l-4-16zm90.25 452a12.01 12.01 0 0 1 -12 12h-232a12.01 12.01 0 0 1 -12-12v-440a12.01 12.01 0 0 1 12-12h61.75l6.49 25.94a8 8 0 0 0 7.76 6.06h80a8 8 0 0 0 7.76-6.06l6.49-25.94h61.75a12.01 12.01 0 0 1 12 12z" fill="#e2e2e2" data-original="#000000" style="" class=""/><path d="m248 464h-48a8 8 0 0 0 0 16h48a8 8 0 0 0 0-16z" fill="#e2e2e2" data-original="#000000" style="" class=""/><path d="m408.15 79.71a24.025 24.025 0 0 0 -24 24v280a7.918 7.918 0 0 0 .84 3.58l16 32a8 8 0 0 0 14.31 0l16-32a7.927 7.927 0 0 0 .85-3.58v-280a24.032 24.032 0 0 0 -24-24zm8 302.12-8 16-8-16v-238.12h16zm0-254.12h-16v-24a8 8 0 1 1 16 0z" fill="#e2e2e2" data-original="#000000" style="" class=""/><path d="m312 144h-152a8 8 0 0 0 -8 8v16h-16a8 8 0 0 0 -8 8v200a8 8 0 0 0 8 8h152a8 8 0 0 0 8-8v-16h16a8 8 0 0 0 8-8v-200a8 8 0 0 0 -8-8zm-32 224h-136v-184h136zm24-24h-8v-168a8 8 0 0 0 -8-8h-120v-8h136z" fill="#e2e2e2" data-original="#000000" style="" class=""/><path d="m256 200h-88a8 8 0 0 0 0 16h88a8 8 0 0 0 0-16z" fill="#e2e2e2" data-original="#000000" style="" class=""/><path d="m256 224h-88a8 8 0 0 0 0 16h88a8 8 0 0 0 0-16z" fill="#e2e2e2" data-original="#000000" style="" class=""/><path d="m184 264h56a8 8 0 0 0 0-16h-56a8 8 0 0 0 0 16z" fill="#e2e2e2" data-original="#000000" style="" class=""/><path d="m184 304h56a8 8 0 0 0 0-16h-56a8 8 0 0 0 0 16z" fill="#e2e2e2" data-original="#000000" style="" class=""/><path d="m256 312h-88a8 8 0 0 0 0 16h88a8 8 0 0 0 0-16z" fill="#e2e2e2" data-original="#000000" style="" class=""/><path d="m240 336h-56a8 8 0 0 0 0 16h56a8 8 0 0 0 0-16z" fill="#e2e2e2" data-original="#000000" style="" class=""/></g></g></svg>
