<?xml version="1.0"?>
<svg xmlns="http://www.w3.org/2000/svg" xmlns:xlink="http://www.w3.org/1999/xlink" xmlns:svgjs="http://svgjs.com/svgjs" version="1.1" width="512" height="512" x="0" y="0" viewBox="0 0 512 512" style="enable-background:new 0 0 512 512" xml:space="preserve" class=""><g><g xmlns="http://www.w3.org/2000/svg"><path d="M160,152a24,24,0,1,0-24,24A24.027,24.027,0,0,0,160,152Zm-32,0a8,8,0,1,1,8,8A8.009,8.009,0,0,1,128,152Z" fill="#e2e2e2" data-original="#000000" style="" class=""/><path d="M72,128a24,24,0,1,0,24,24A24.027,24.027,0,0,0,72,128Zm0,32a8,8,0,1,1,8-8A8.009,8.009,0,0,1,72,160Z" fill="#e2e2e2" data-original="#000000" style="" class=""/><path d="M200,176a24,24,0,1,0-24-24A24.028,24.028,0,0,0,200,176Zm0-32a8,8,0,1,1-8,8A8.009,8.009,0,0,1,200,144Z" fill="#e2e2e2" data-original="#000000" style="" class=""/><path d="M468,256H400V36A28.031,28.031,0,0,0,372,8H140a28.031,28.031,0,0,0-28,28V64H36A28.031,28.031,0,0,0,8,92V212a28.031,28.031,0,0,0,28,28h76V476a28.031,28.031,0,0,0,28,28H372a28.031,28.031,0,0,0,28-28V432h68a28.031,28.031,0,0,0,28-28V284A28.031,28.031,0,0,0,468,256ZM293.75,24l-4,16h-67.5l-4-16ZM36,224a12.01,12.01,0,0,1-12-12V92A12.01,12.01,0,0,1,36,80H236a12.01,12.01,0,0,1,12,12V212a12.01,12.01,0,0,1-12,12H224a8,8,0,0,0-8,8v28.69l-34.34-34.35A8.008,8.008,0,0,0,176,224ZM384,476a12.01,12.01,0,0,1-12,12H140a12.01,12.01,0,0,1-12-12V240h44.69l45.65,45.66A8,8,0,0,0,232,280V240h4a28.031,28.031,0,0,0,28-28V92a28.031,28.031,0,0,0-28-28H128V36a12.01,12.01,0,0,1,12-12h61.75l6.49,25.94A8,8,0,0,0,216,56h80a8,8,0,0,0,7.76-6.06L310.25,24H372a12.01,12.01,0,0,1,12,12V256H268a28.031,28.031,0,0,0-28,28V404a28.031,28.031,0,0,0,28,28h4v40a8,8,0,0,0,13.66,5.66L331.31,432H384Zm96-72a12.01,12.01,0,0,1-12,12H328a8.008,8.008,0,0,0-5.66,2.34L288,452.69V424a8,8,0,0,0-8-8H268a12.01,12.01,0,0,1-12-12V284a12.01,12.01,0,0,1,12-12H468a12.01,12.01,0,0,1,12,12Z" fill="#e2e2e2" data-original="#000000" style="" class=""/><path d="M368,320a24,24,0,1,0,24,24A24.028,24.028,0,0,0,368,320Zm0,32a8,8,0,1,1,8-8A8.009,8.009,0,0,1,368,352Z" fill="#e2e2e2" data-original="#000000" style="" class=""/><path d="M432,320a24,24,0,1,0,24,24A24.028,24.028,0,0,0,432,320Zm0,32a8,8,0,1,1,8-8A8.009,8.009,0,0,1,432,352Z" fill="#e2e2e2" data-original="#000000" style="" class=""/><path d="M304,320a24,24,0,1,0,24,24A24.028,24.028,0,0,0,304,320Zm0,32a8,8,0,1,1,8-8A8.009,8.009,0,0,1,304,352Z" fill="#e2e2e2" data-original="#000000" style="" class=""/></g></g></svg>
