<?xml version="1.0"?>
<svg xmlns="http://www.w3.org/2000/svg" xmlns:xlink="http://www.w3.org/1999/xlink" xmlns:svgjs="http://svgjs.com/svgjs" version="1.1" width="512" height="512" x="0" y="0" viewBox="0 0 512 512" style="enable-background:new 0 0 512 512" xml:space="preserve" class=""><g><g xmlns="http://www.w3.org/2000/svg"><path d="M280,464H232a8,8,0,0,0,0,16h48a8,8,0,0,0,0-16Z" fill="#e2e2e2" data-original="#000000" style="" class=""/><path d="M432,232H400V36A28.031,28.031,0,0,0,372,8H140a28.031,28.031,0,0,0-28,28v76H88a16.021,16.021,0,0,0-16,16v80a16.021,16.021,0,0,0,16,16h24V476a28.031,28.031,0,0,0,28,28H372a28.031,28.031,0,0,0,28-28V392h32a8,8,0,0,0,8-8V240A8,8,0,0,0,432,232ZM293.75,24l-4,16h-67.5l-4-16ZM88,208V128H216l.01,80H88Zm296,24H360v-8a39.807,39.807,0,0,0-7.22-22.89A24,24,0,0,1,384,224ZM272.76,312l6.4,64H184.84l6.4-64ZM216,296a16,16,0,0,1,32,0Zm48,0V248h16v8a8,8,0,0,0,16,0v-8h48v8a8,8,0,0,0,16,0v-8h16V376H295.24l-7.28-72.8A8,8,0,0,0,280,296Zm32-64v-8a24,24,0,0,1,31.22-22.89A39.807,39.807,0,0,0,320,224v8Zm40,0v-8a23.916,23.916,0,0,1,4-13.25A23.916,23.916,0,0,1,344,224v8Zm48-39.98a39.9,39.9,0,0,0-44-2.64A39.971,39.971,0,0,0,280,224v8H256a8,8,0,0,0-8,8v28.3A31.983,31.983,0,0,0,200,296H184a8,8,0,0,0-7.96,7.2l-8,80A8,8,0,0,0,176,392H384v84a12.01,12.01,0,0,1-12,12H140a12.01,12.01,0,0,1-12-12V224h88a16.021,16.021,0,0,0,16-16V128a16.021,16.021,0,0,0-16-16H128V36a12.01,12.01,0,0,1,12-12h61.75l6.49,25.94A8,8,0,0,0,216,56h80a8,8,0,0,0,7.76-6.06L310.25,24H372a12.01,12.01,0,0,1,12,12ZM424,376H392V248h32Z" fill="#e2e2e2" data-original="#000000" style="" class=""/><path d="M408,352a8,8,0,0,0,8-8V264a8,8,0,0,0-16,0v80A8,8,0,0,0,408,352Z" fill="#e2e2e2" data-original="#000000" style="" class=""/><path d="M144,168V144a8,8,0,0,0-8-8H104a8,8,0,0,0-8,8v24a8,8,0,0,0,8,8h32A8,8,0,0,0,144,168Zm-16-8H112v-8h16Z" fill="#e2e2e2" data-original="#000000" style="" class=""/><path d="M160,200h40a8,8,0,0,0,0-16H160a8,8,0,0,0,0,16Z" fill="#e2e2e2" data-original="#000000" style="" class=""/><path d="M192,152h8a8,8,0,0,0,0-16h-8a8,8,0,0,0,0,16Z" fill="#e2e2e2" data-original="#000000" style="" class=""/></g></g></svg>
