<?xml version="1.0"?>
<svg xmlns="http://www.w3.org/2000/svg" xmlns:xlink="http://www.w3.org/1999/xlink" xmlns:svgjs="http://svgjs.com/svgjs" version="1.1" width="512" height="512" x="0" y="0" viewBox="0 0 512 512" style="enable-background:new 0 0 512 512" xml:space="preserve" class=""><g><g xmlns="http://www.w3.org/2000/svg"><path d="M232,480h48a8,8,0,0,0,0-16H232a8,8,0,0,0,0,16Z" fill="#e2e2e2" data-original="#000000" style="" class=""/><path d="M472,128H456V112a8,8,0,0,0-5.47-7.59A320.913,320.913,0,0,0,400,91.95V36A28.031,28.031,0,0,0,372,8H140a28.031,28.031,0,0,0-28,28V91.95a320.913,320.913,0,0,0-50.53,12.46A8,8,0,0,0,56,112v16H40a8,8,0,0,0-8,8V424a8,8,0,0,0,8,8h72v44a28.031,28.031,0,0,0,28,28H372a28.031,28.031,0,0,0,28-28V432h72a8,8,0,0,0,8-8V136A8,8,0,0,0,472,128Zm-32-10.18V389.09c-58.45-17.36-117.55-17.35-176,.01V120a8.044,8.044,0,0,0-.28-2.09C322.23,99.51,381.48,99.48,440,117.82ZM293.75,24l-4,16h-67.5l-4-16ZM128,36a12.01,12.01,0,0,1,12-12h61.75l6.49,25.94A8,8,0,0,0,216,56h80a8,8,0,0,0,7.76-6.06L310.25,24H372a12.01,12.01,0,0,1,12,12V89.79c-42.71-4.59-85.54.01-128,13.79C213.54,89.8,170.71,85.2,128,89.79ZM72,117.82c58.52-18.34,117.77-18.31,176.28.09A8.044,8.044,0,0,0,248,120V389.11a303.675,303.675,0,0,0-176-.02ZM384,476a12.01,12.01,0,0,1-12,12H140a12.01,12.01,0,0,1-12-12V432H384Zm80-60H48V144h8V400a8,8,0,0,0,10.53,7.59c62.02-20.67,124.92-20.67,186.94,0a7.965,7.965,0,0,0,5.06,0c62.02-20.67,124.92-20.67,186.94,0A7.884,7.884,0,0,0,448,408a8,8,0,0,0,8-8V144h8Z" fill="#e2e2e2" data-original="#000000" style="" class=""/></g></g></svg>
