<?xml version="1.0"?>
<svg xmlns="http://www.w3.org/2000/svg" xmlns:xlink="http://www.w3.org/1999/xlink" xmlns:svgjs="http://svgjs.com/svgjs" version="1.1" width="512" height="512" x="0" y="0" viewBox="0 0 512 512" style="enable-background:new 0 0 512 512" xml:space="preserve" class=""><g transform="matrix(1,0,0,1,0,0)"><g xmlns="http://www.w3.org/2000/svg"><path d="M240,464H192a8,8,0,0,0,0,16h48a8,8,0,0,0,0-16Z" fill="#e2e2e2" data-original="#000000" style="" class=""/><path d="M320,233.376V208a8,8,0,0,0-16,0v25.376a24,24,0,1,0,16,0ZM312,264a8,8,0,1,1,8-8A8.009,8.009,0,0,1,312,264Z" fill="#e2e2e2" data-original="#000000" style="" class=""/><path d="M402.28,177.04l11.38-11.38a8,8,0,1,0-11.32-11.32l-11.38,11.38A120.28,120.28,0,0,0,360,146.03V36A28.031,28.031,0,0,0,332,8H100A28.031,28.031,0,0,0,72,36V476a28.031,28.031,0,0,0,28,28H332a28.031,28.031,0,0,0,28-28V365.97a119.9,119.9,0,0,0,42.28-188.93ZM253.75,24l-4,16h-67.5l-4-16ZM344,476a12.01,12.01,0,0,1-12,12H100a12.01,12.01,0,0,1-12-12V36a12.01,12.01,0,0,1,12-12h61.75l6.49,25.94A8,8,0,0,0,176,56h80a8,8,0,0,0,7.76-6.06L270.25,24H332a12.01,12.01,0,0,1,12,12V140.34c-2.63-.73-5.3-1.38-8-1.93V120a8,8,0,0,0-8-8H296a8,8,0,0,0-8,8v18.41a120.009,120.009,0,1,0,56,233.25ZM320,128v8H304v-8Zm-8,232A104,104,0,1,1,416,256,104.112,104.112,0,0,1,312,360Z" fill="#e2e2e2" data-original="#000000" style="" class=""/><path d="M312,168a88,88,0,1,0,88,88A88.1,88.1,0,0,0,312,168Zm0,160a72,72,0,1,1,72-72A72.081,72.081,0,0,1,312,328Z" fill="#e2e2e2" data-original="#000000" style="" class=""/></g></g></svg>
