<?xml version="1.0"?>
<svg xmlns="http://www.w3.org/2000/svg" xmlns:xlink="http://www.w3.org/1999/xlink" xmlns:svgjs="http://svgjs.com/svgjs" version="1.1" width="512" height="512" x="0" y="0" viewBox="0 0 512 512" style="enable-background:new 0 0 512 512" xml:space="preserve" class=""><g><g xmlns="http://www.w3.org/2000/svg"><path d="M280,464H232a8,8,0,0,0,0,16h48a8,8,0,0,0,0-16Z" fill="#e2e2e2" data-original="#000000" style=""/><path d="M435.21,354.53a3.716,3.716,0,0,0-.21-.39l-35-61.27V36A28.031,28.031,0,0,0,372,8H140a28.031,28.031,0,0,0-28,28V292.87L77,354.14a3.716,3.716,0,0,0-.21.39A47.978,47.978,0,0,0,112,423.36V476a28.031,28.031,0,0,0,28,28H372a28.031,28.031,0,0,0,28-28V423.36a47.978,47.978,0,0,0,35.21-68.83ZM293.75,24l-4,16h-67.5l-4-16ZM128,36a12.01,12.01,0,0,1,12-12h61.75l6.49,25.94A8,8,0,0,0,216,56h80a8,8,0,0,0,7.76-6.06L310.25,24H372a12.01,12.01,0,0,1,12,12V264.86L298.83,115.77a48,48,0,0,0-85.66,0L128,264.86ZM384,476a12.01,12.01,0,0,1-12,12H140a12.01,12.01,0,0,1-12-12V424H384Zm35.5-83.18A31.782,31.782,0,0,1,392.28,408H119.72a32,32,0,0,1-28.71-46.12L227.17,123.52l.21-.39a32,32,0,0,1,57.24,0l.21.39L420.99,361.88A31.762,31.762,0,0,1,419.5,392.82Z" fill="#e2e2e2" data-original="#000000" style=""/><path d="M399.15,372.03,263.55,134.66l-.39-.79a8,8,0,0,0-14.32,0l-.39.79L112.85,372.03A7.992,7.992,0,0,0,119.79,384H392.21a7.992,7.992,0,0,0,6.94-11.97ZM133.58,368,256,153.69,378.42,368Z" fill="#e2e2e2" data-original="#000000" style=""/><path d="M232,216v80a8,8,0,0,0,8,8h32a8,8,0,0,0,8-8V216a8,8,0,0,0-8-8H240A8,8,0,0,0,232,216Zm16,8h16v64H248Z" fill="#e2e2e2" data-original="#000000" style=""/><path d="M272,312H240a8,8,0,0,0-8,8v32a8,8,0,0,0,8,8h32a8,8,0,0,0,8-8V320A8,8,0,0,0,272,312Zm-8,32H248V328h16Z" fill="#e2e2e2" data-original="#000000" style=""/></g></g></svg>
