<?xml version="1.0"?>
<svg xmlns="http://www.w3.org/2000/svg" xmlns:xlink="http://www.w3.org/1999/xlink" xmlns:svgjs="http://svgjs.com/svgjs" version="1.1" width="512" height="512" x="0" y="0" viewBox="0 0 512 512" style="enable-background:new 0 0 512 512" xml:space="preserve" class=""><g><g xmlns="http://www.w3.org/2000/svg"><path d="M280,464H232a8,8,0,0,0,0,16h48a8,8,0,0,0,0-16Z" fill="#e2e2e2" data-original="#000000" style="" class=""/><path d="M440,280H400V36A28.031,28.031,0,0,0,372,8H140a28.031,28.031,0,0,0-28,28v84.52a63.98,63.98,0,0,0,0,126.96V476a28.031,28.031,0,0,0,28,28H372a28.031,28.031,0,0,0,28-28V392h40a16.021,16.021,0,0,0,16-16V296A16.021,16.021,0,0,0,440,280ZM293.75,24l-4,16h-67.5l-4-16ZM120,232a48,48,0,1,1,48-48A48.051,48.051,0,0,1,120,232ZM384,476a12.01,12.01,0,0,1-12,12H140a12.01,12.01,0,0,1-12-12V247.48a63.98,63.98,0,0,0,0-126.96V36a12.01,12.01,0,0,1,12-12h61.75l6.49,25.94A8,8,0,0,0,216,56h80a8,8,0,0,0,7.76-6.06L310.25,24H372a12.01,12.01,0,0,1,12,12V280H312a16.021,16.021,0,0,0-16,16v80a16.021,16.021,0,0,0,16,16h72Zm56-100H312V296H440l.01,80Z" fill="#e2e2e2" data-original="#000000" style="" class=""/><path d="M144,184v24a8,8,0,0,1-8,8h-8a8,8,0,0,1-16,0h-8a8,8,0,0,1,0-16h24v-8H104a8,8,0,0,1-8-8V160a8,8,0,0,1,8-8h8a8,8,0,0,1,16,0h8a8,8,0,0,1,0,16H112v8h24A8,8,0,0,1,144,184Z" fill="#e2e2e2" data-original="#000000" style="" class=""/><path d="M360,304H328a8,8,0,0,0-8,8v24a8,8,0,0,0,8,8h32a8,8,0,0,0,8-8V312A8,8,0,0,0,360,304Zm-8,24H336v-8h16Z" fill="#e2e2e2" data-original="#000000" style="" class=""/><path d="M424,352H384a8,8,0,0,0,0,16h40a8,8,0,0,0,0-16Z" fill="#e2e2e2" data-original="#000000" style="" class=""/><path d="M424,304h-8a8,8,0,0,0,0,16h8a8,8,0,0,0,0-16Z" fill="#e2e2e2" data-original="#000000" style="" class=""/><path d="M240.5,191.5h99.686l-10.343,10.343a8,8,0,0,0,11.314,11.314l24-24a8,8,0,0,0,0-11.314l-24-24a8,8,0,0,0-11.314,11.314L340.186,175.5H240.5a8,8,0,0,0,0,16Z" fill="#e2e2e2" data-original="#000000" style="" class=""/><path d="M208,192h8a8,8,0,0,0,0-16h-8a8,8,0,0,0,0,16Z" fill="#e2e2e2" data-original="#000000" style="" class=""/><path d="M170.814,344H248a8,8,0,0,0,0-16H171.814l9.843-9.843a8,8,0,1,0-11.314-11.314l-24,24a8,8,0,0,0,0,11.314l24,24a8,8,0,1,0,11.314-11.314Z" fill="#e2e2e2" data-original="#000000" style="" class=""/><path d="M272.5,328a8,8,0,0,0,0,16h7a8,8,0,0,0,0-16Z" fill="#e2e2e2" data-original="#000000" style="" class=""/></g></g></svg>
