<?xml version="1.0"?>
<svg xmlns="http://www.w3.org/2000/svg" xmlns:xlink="http://www.w3.org/1999/xlink" xmlns:svgjs="http://svgjs.com/svgjs" version="1.1" width="512" height="512" x="0" y="0" viewBox="0 0 512 512" style="enable-background:new 0 0 512 512" xml:space="preserve" class=""><g><g xmlns="http://www.w3.org/2000/svg"><path d="M392.97,335.01A23.9,23.9,0,0,0,368,329.4V36A28.031,28.031,0,0,0,340,8H140a28.031,28.031,0,0,0-28,28V428a28.031,28.031,0,0,0,28,28H254.76l2.33,4.35a7.982,7.982,0,0,0,1.49,1.98l13.52,13.05-.1,20.58a8.006,8.006,0,0,0,8,8.04h96a8,8,0,0,0,8-8V475.31l13.66-13.65A8.008,8.008,0,0,0,400,456V352A23.924,23.924,0,0,0,392.97,335.01ZM277.75,24l-4,16h-67.5l-4-16ZM140,440a12.01,12.01,0,0,1-12-12V36a12.01,12.01,0,0,1,12-12h45.75l6.49,25.94A8,8,0,0,0,200,56h80a8,8,0,0,0,7.76-6.06L294.25,24H340a12.01,12.01,0,0,1,12,12V313.36a24.134,24.134,0,0,0-8-1.36,23.887,23.887,0,0,0-11.76,3.08,24.727,24.727,0,0,0-3.27-4.07A24.045,24.045,0,0,0,304,305.37V264a24,24,0,0,0-48,0v92.68c-.07-.13-.13-.26-.21-.38a24,24,0,0,0-41.65,23.87L246.19,440Zm244,12.69-13.66,13.65A8.008,8.008,0,0,0,368,472v16H288.04l.08-15.96a7.99,7.99,0,0,0-2.44-5.79L270.6,451.69l-42.41-79.18-.12-.21a8.033,8.033,0,0,1,2.94-10.95,7.868,7.868,0,0,1,3.98-1.07,8.031,8.031,0,0,1,6.84,3.84l15.02,29.97A8,8,0,0,0,272,390.51V264a8.011,8.011,0,0,1,8-8,7.989,7.989,0,0,1,8,8V368a8,8,0,0,0,16,0V328a8.011,8.011,0,0,1,8-8,7.989,7.989,0,0,1,8,8v40a8,8,0,0,0,16,0V336a8.011,8.011,0,0,1,8-8,7.989,7.989,0,0,1,8,8v32a8,8,0,0,0,16,0V352a8.011,8.011,0,0,1,8-8,7.989,7.989,0,0,1,8,8Z" fill="#e2e2e2" data-original="#000000" style=""/><path d="M224,208V112a8,8,0,0,0-11.578-7.155C210.936,105.588,176,123.566,176,168a8,8,0,0,0,8,8h24v32a8,8,0,0,0,16,0Zm-16-48H192.5A54.721,54.721,0,0,1,208,128.076Z" fill="#e2e2e2" data-original="#000000" style=""/><path d="M256,159.71V208a8,8,0,0,0,16,0V159.71A28.04,28.04,0,0,0,296,132V112a8,8,0,0,0-16,0v20a12.01,12.01,0,0,1-8,11.3V112a8,8,0,0,0-16,0v31.3a12.01,12.01,0,0,1-8-11.3V112a8,8,0,0,0-16,0v20A28.04,28.04,0,0,0,256,159.71Z" fill="#e2e2e2" data-original="#000000" style=""/></g></g></svg>
